{
  "accessors": [
    {
      "bufferView": 1,
      "componentType": 5126,
      "count": 35628,
      "max": [
        0.57099050283432007,
        1.0033758878707886,
        0.54741311073303223
      ],
      "min": [
        -0.58859479427337646,
        -0.9821476936340332,
        -0.54829192161560059
      ],
      "type": "VEC3"
    },
    {
      "bufferView": 1,
      "byteOffset": 427536,
      "componentType": 5126,
      "count": 35628,
      "max": [
        0.99990683794021606,
        0.9999968409538269,
        1
      ],
      "min": [
        -0.99997973442077637,
        -0.99999779462814331,
        -1
      ],
      "type": "VEC3"
    },
    {
      "bufferView": 2,
      "componentType": 5126,
      "count": 35628,
      "max": [
        0.97254902124404907,
        0.87058824300765991,
        0.3803921639919281,
        1
      ],
      "min": [
        0.83137255907058716,
        0.54509806632995605,
        0.18039216101169586,
        1
      ],
      "type": "VEC4"
    },
    {
      "bufferView": 0,
      "componentType": 5125,
      "count": 212976,
      "max": [
        35627
      ],
      "min": [
        0
      ],
      "type": "SCALAR"
    }
  ],
  "asset": {
    "extras": {
      "author": "CzernO (https://sketchfab.com/czernobog)",
      "license": "CC-BY-4.0 (http://creativecommons.org/licenses/by/4.0/)",
      "source": "https://sketchfab.com/3d-models/cheese-wedge-5167e6bba94a4c09b4d780f625bceeda",
      "title": "cheese wedge"
    },
    "generator": "Sketchfab-8.87.0",
    "version": "2.0"
  },
  "bufferViews": [
    {
      "buffer": 0,
      "byteLength": 851904,
      "byteOffset": 0,
      "name": "floatBufferViews",
      "target": 34963
    },
    {
      "buffer": 0,
      "byteLength": 855072,
      "byteOffset": 851904,
      "byteStride": 12,
      "name": "floatBufferViews",
      "target": 34962
    },
    {
      "buffer": 0,
      "byteLength": 570048,
      "byteOffset": 1706976,
      "byteStride": 16,
      "name": "floatBufferViews",
      "target": 34962
    }
  ],
  "buffers": [
    {
      "byteLength": 2277024,
      "uri": "scene.bin"
    }
  ],
  "materials": [
    {
      "doubleSided": true,
      "name": "material_0",
      "pbrMetallicRoughness": {
        "baseColorFactor": [
          1,
          1,
          1,
          1
        ],
        "metallicFactor": 0,
        "roughnessFactor": 0.59999999999999998
      }
    }
  ],
  "meshes": [
    {
      "primitives": [
        {
          "attributes": {
            "COLOR_0": 2,
            "NORMAL": 1,
            "POSITION": 0
          },
          "indices": 3,
          "material": 0,
          "mode": 4
        }
      ]
    }
  ],
  "nodes": [
    {
      "children": [
        1
      ],
      "name": "RootNode (gltf orientation matrix)",
      "rotation": [
        -0.70710678118654746,
        -0,
        -0,
        0.70710678118654757
      ]
    },
    {
      "children": [
        2
      ],
      "name": "RootNode (model correction matrix)"
    },
    {
      "children": [
        3
      ],
      "name": "SubTool-0-12656639.OBJ"
    },
    {
      "mesh": 0,
      "name": ""
    }
  ],
  "scene": 0,
  "scenes": [
    {
      "name": "OSG_Scene",
      "nodes": [
        0
      ]
    }
  ]
}

